<svg xmlns="http://www.w3.org/2000/svg" xmlns:xlink="http://www.w3.org/1999/xlink" width="400" zoomAndPan="magnify" viewBox="0 0 300 299.999988" height="400" preserveAspectRatio="xMidYMid meet" version="1.0"><defs><clipPath id="2b1bbe2ce7"><path d="M 80 44 L 242.855469 44 L 242.855469 256 L 80 256 Z M 80 44 " clip-rule="nonzero"/></clipPath><clipPath id="969edaceac"><path d="M 56.855469 102 L 152 102 L 152 229 L 56.855469 229 Z M 56.855469 102 " clip-rule="nonzero"/></clipPath></defs><g clip-path="url(#2b1bbe2ce7)"><path fill="#2e403d" d="M 138.449219 195.199219 C 136.910156 195.285156 135.371094 195.332031 133.871094 195.332031 L 133.863281 195.332031 C 129.46875 195.339844 125.109375 194.941406 120.785156 194.136719 C 105.253906 191.230469 91.523438 183.046875 80.417969 170.011719 L 80.417969 255.984375 L 138.628906 255.984375 L 138.628906 195.679688 C 138.570312 195.503906 138.507812 195.34375 138.449219 195.199219 Z M 237.878906 90.910156 C 234.382812 82.109375 229.460938 74.195312 223.105469 67.171875 C 216.667969 60.039062 209.105469 54.417969 200.417969 50.308594 C 195.9375 48.199219 191.28125 46.613281 186.445312 45.554688 C 181.609375 44.496094 176.714844 43.992188 171.765625 44.039062 L 80.417969 44.039062 L 80.417969 111.347656 C 89.917969 115.238281 99.257812 118.175781 107.941406 120.90625 C 120.507812 124.863281 131.21875 128.226562 138.628906 133.339844 L 138.628906 94.789062 L 167.878906 94.789062 C 170.476562 94.835938 172.914062 95.480469 175.191406 96.726562 C 177.679688 98.027344 179.769531 100.308594 181.460938 103.597656 C 183.152344 106.878906 184 111.507812 184.003906 117.476562 C 184.003906 123.046875 183.257812 127.523438 181.765625 130.90625 C 180.269531 134.292969 178.425781 136.683594 176.238281 138.074219 C 174.15625 139.449219 171.871094 140.144531 169.375 140.160156 L 145.644531 140.160156 C 145.820312 140.410156 145.984375 140.664062 146.148438 140.925781 C 146.207031 141.015625 146.265625 141.109375 146.316406 141.199219 C 152.25 147.097656 156.1875 157.488281 156.1875 169.304688 C 156.1875 177.542969 154.273438 185.089844 151.105469 190.90625 L 173.253906 190.90625 C 187.183594 190.90625 199.371094 187.375 209.824219 180.308594 C 214.980469 176.851562 219.628906 172.8125 223.773438 168.191406 C 227.917969 163.566406 231.425781 158.503906 234.300781 153 C 237.207031 147.53125 239.410156 141.792969 240.898438 135.78125 C 242.390625 129.773438 243.125 123.671875 243.109375 117.476562 C 243.078125 108.285156 241.335938 99.429688 237.878906 90.910156 Z M 237.878906 90.910156 " fill-opacity="1" fill-rule="nonzero"/></g><path fill="#2e403d" d="M 138.628906 222.777344 L 138.628906 230.589844 C 138.160156 230.214844 137.832031 229.746094 137.640625 229.175781 C 137.453125 228.605469 137.433594 228.03125 137.585938 227.453125 C 137.597656 227.398438 138.070312 225.5625 138.628906 222.777344 Z M 138.628906 222.777344 " fill-opacity="1" fill-rule="nonzero"/><g clip-path="url(#969edaceac)"><path fill="#c9dd80" d="M 98.832031 144.265625 C 136.734375 165.914062 143.914062 178.992188 146.65625 187.113281 C 147.085938 188.394531 147.453125 189.65625 147.75 190.90625 C 151.554688 206.519531 145.71875 219.5 140.527344 228.210938 C 140.527344 228.210938 144.984375 211.054688 143.085938 200.691406 C 141.929688 194.359375 140.246094 192.027344 140.246094 192.027344 C 139.707031 192.074219 139.164062 192.109375 138.628906 192.148438 C 113.175781 193.742188 93.921875 182.503906 80.417969 165.203125 C 67.132812 148.171875 59.425781 125.269531 56.882812 102.945312 C 64.398438 107.496094 72.246094 111.390625 80.417969 114.621094 C 104.597656 124.351562 127.253906 128.0625 138.628906 137.132812 C 139.789062 138.042969 140.847656 139.050781 141.816406 140.160156 C 142.464844 140.902344 143.050781 141.695312 143.574219 142.53125 C 156.085938 162.617188 149.980469 182.480469 149.980469 182.480469 C 141.765625 166.328125 139.738281 163.851562 98.832031 144.265625 Z M 98.832031 144.265625 " fill-opacity="1" fill-rule="nonzero"/></g><path fill="#2e403d" d="M 138.628906 195.679688 L 138.628906 202.082031 C 137.421875 202.417969 136.1875 202.585938 134.933594 202.585938 C 129.5 202.585938 124.542969 199.386719 120.785156 194.136719 C 125.109375 194.941406 129.46875 195.339844 133.863281 195.332031 L 133.871094 195.332031 C 135.371094 195.332031 136.910156 195.285156 138.449219 195.199219 C 138.507812 195.34375 138.570312 195.503906 138.628906 195.679688 Z M 138.628906 195.679688 " fill-opacity="1" fill-rule="nonzero"/></svg>